<?xml version="1.0" encoding="UTF-8"?>
<svg id="Layer_1" data-name="Layer 1" xmlns="http://www.w3.org/2000/svg" viewBox="0 0 369.02 338.19">
  <defs>
    <style>
      .cls-1, .cls-2 {
        stroke: #000;
        stroke-linecap: round;
        stroke-linejoin: round;
        stroke-width: 40px;
      }

      .cls-2 {
        fill: none;
      }
    </style>
  </defs>
  <path class="cls-1" d="m163.77,239.65c0,14.79-11.99,26.78-26.78,26.78-14.79,0-26.78-11.99-26.78-26.78s11.99-26.78,26.78-26.78,26.78,11.99,26.78,26.78Z"/>
  <path class="cls-2" d="m51.23,34.46l14.4,53.72c2.29,8.54,12.96,11.4,19.21,5.15l39.33-39.33c6.25-6.25,3.39-16.92-5.15-19.21l-53.72-14.4c-8.54-2.29-16.35,5.52-14.06,14.06Z"/>
  <path class="cls-2" d="m348.61,303.73l-14.4-53.72c-2.29-8.54-12.96-11.4-19.21-5.15l-39.33,39.33c-6.25,6.25-3.39,16.92,5.15,19.21l53.72,14.4c8.54,2.29,16.35-5.52,14.06-14.06Z"/>
  <circle class="cls-1" cx="173.02" cy="142.2" r="7.11"/>
  <path class="cls-1" d="m241.54,203.61c0,3.92-3.18,7.11-7.11,7.11-3.92,0-7.11-3.18-7.11-7.11s3.18-7.11,7.11-7.11c3.92,0,7.11,3.18,7.11,7.11Z"/>
  <path class="cls-2" d="m49.25,169.1c-39,39-39,102.11,0,141.1"/>
  <path class="cls-2" d="m266.37,135.1c15.09,16.77,27.09,36.77,34.83,57.82"/>
  <path class="cls-2" d="m182.71,71.35c17.36,6.59,33.86,15.51,48.51,26.96"/>
</svg>