<?xml version="1.0" encoding="UTF-8"?>
<svg id="Layer_1" data-name="Layer 1" xmlns="http://www.w3.org/2000/svg" viewBox="0 0 239.81 239.81">
  <defs>
    <style>
      .cls-1 {
        fill: #fff;
      }
    </style>
  </defs>
  <path class="cls-1" d="m68.83,234.81c-7.43,0-14.42-2.89-19.67-8.15-5.95-5.95-8.86-14.16-8-22.52.16-1.5-.37-2.99-1.44-4.05-.94-.94-2.22-1.47-3.54-1.47-.17,0-.34,0-.51.03-.95.1-1.91.15-2.87.15-7.43,0-14.41-2.89-19.66-8.14-5.25-5.25-8.15-12.24-8.15-19.67,0-7.43,2.89-14.42,8.15-19.67,5.26-5.26,12.24-8.15,19.67-8.15s14.42,2.89,19.67,8.15c.94.94,2.21,1.46,3.54,1.46s2.6-.53,3.54-1.46l91.75-91.75c1.95-1.95,1.95-5.12,0-7.07-10.85-10.85-10.85-28.5,0-39.34,5.26-5.26,12.24-8.15,19.67-8.15s14.42,2.89,19.67,8.15c5.94,5.94,8.86,14.15,8,22.52-.15,1.5.38,2.98,1.44,4.05.94.94,2.22,1.46,3.53,1.46.17,0,.34,0,.51-.03.95-.1,1.91-.15,2.86-.15,7.42,0,14.4,2.89,19.66,8.15,10.85,10.85,10.85,28.5,0,39.34-5.25,5.25-12.24,8.15-19.67,8.15s-14.42-2.89-19.67-8.15c-.94-.94-2.21-1.46-3.54-1.46s-2.6.53-3.54,1.46l-91.75,91.75c-1.95,1.95-1.95,5.12,0,7.07,5.25,5.25,8.15,12.24,8.15,19.67,0,7.43-2.89,14.42-8.15,19.67-5.25,5.25-12.24,8.15-19.67,8.15Z"/>
  <path d="m170.99,10c6.09,0,11.82,2.37,16.14,6.69,4.87,4.87,7.26,11.61,6.56,18.48-.31,2.99.75,5.96,2.88,8.09,1.88,1.88,4.43,2.93,7.07,2.93.34,0,.68-.02,1.02-.05.78-.08,1.57-.12,2.35-.12,6.09,0,11.81,2.37,16.12,6.68,8.9,8.9,8.9,23.37,0,32.27-4.31,4.31-10.04,6.68-16.14,6.68s-11.83-2.37-16.14-6.68c-1.88-1.88-4.42-2.93-7.07-2.93s-5.2,1.05-7.07,2.93l-91.75,91.75c-3.91,3.91-3.91,10.24,0,14.14,4.31,4.31,6.68,10.04,6.68,16.13,0,6.1-2.37,11.83-6.68,16.14-4.31,4.31-10.04,6.68-16.14,6.68s-11.83-2.37-16.14-6.68c-4.88-4.88-7.27-11.61-6.56-18.47.31-2.99-.74-5.97-2.87-8.1-1.89-1.89-4.43-2.93-7.07-2.93-.34,0-.68.02-1.02.05-.78.08-1.57.12-2.36.12-6.09,0-11.82-2.37-16.12-6.68-4.31-4.31-6.68-10.04-6.68-16.14,0-6.1,2.37-11.83,6.68-16.13,4.31-4.31,10.04-6.69,16.14-6.69s11.82,2.37,16.14,6.69c1.95,1.95,4.51,2.93,7.07,2.93s5.12-.98,7.07-2.93l91.75-91.75c1.88-1.88,2.93-4.42,2.93-7.07s-1.05-5.2-2.93-7.07c-4.31-4.31-6.69-10.04-6.69-16.14s2.37-11.82,6.69-16.14c4.31-4.31,10.04-6.69,16.14-6.69m0-10c-8.4,0-16.8,3.2-23.21,9.61-12.82,12.82-12.82,33.59,0,46.41l-91.75,91.75c-6.41-6.41-14.81-9.61-23.21-9.61s-16.8,3.2-23.21,9.61c-12.81,12.81-12.82,33.59,0,46.41,6.4,6.4,14.79,9.61,23.19,9.61,1.13,0,2.26-.06,3.38-.17-.98,9.48,2.16,19.3,9.43,26.57,6.41,6.41,14.81,9.61,23.21,9.61s16.8-3.2,23.21-9.61c12.82-12.82,12.81-33.6,0-46.41l91.75-91.75c6.41,6.41,14.81,9.61,23.21,9.61s16.8-3.2,23.21-9.61c12.82-12.82,12.81-33.6,0-46.41-6.41-6.41-14.8-9.61-23.19-9.61-1.13,0-2.25.06-3.37.17.97-9.48-2.18-19.3-9.44-26.57-6.41-6.41-14.81-9.61-23.21-9.61h0Z"/>
</svg>